<?xml version="1.0" standalone="no"?>
<!DOCTYPE svg PUBLIC "-//W3C//DTD SVG 20010904//EN"
 "http://www.w3.org/TR/2001/REC-SVG-20010904/DTD/svg10.dtd">
<svg version="1.0" xmlns="http://www.w3.org/2000/svg"
 width="944.000000pt" height="944.000000pt" viewBox="0 0 944.000000 944.000000"
 preserveAspectRatio="xMidYMid meet">
<metadata>
Created by potrace 1.14, written by Peter Selinger 2001-2017
</metadata>
<g transform="translate(0.000000,944.000000) scale(0.100000,-0.100000)"
fill="#000000" stroke="none">
<path d="M6080 8402 c0 -4 -12 -7 -27 -8 -39 -1 -116 -14 -127 -22 -6 -3 -24
-7 -41 -9 -16 -2 -37 -6 -45 -10 -8 -3 -20 -7 -26 -8 -27 -6 -203 -69 -244
-87 -197 -87 -330 -167 -490 -293 -62 -49 -172 -169 -242 -265 -110 -149 -113
-154 -110 -162 1 -5 -3 -8 -8 -8 -6 0 -10 -7 -10 -15 0 -8 -4 -15 -9 -15 -5 0
-11 -8 -14 -17 -4 -10 -22 -45 -42 -78 -20 -33 -40 -69 -44 -80 -5 -11 -27
-59 -49 -106 -39 -83 -95 -236 -114 -309 -32 -122 -32 -122 -47 -207 -24 -127
-33 -426 -17 -528 4 -22 9 -58 11 -80 3 -22 8 -51 12 -65 3 -14 7 -31 9 -39 2
-10 22 -92 29 -121 1 -3 4 -12 8 -20 3 -8 11 -33 17 -55 6 -22 15 -49 20 -60
5 -11 14 -36 22 -55 19 -50 138 -284 147 -290 5 -3 11 -15 15 -27 4 -13 11
-23 15 -23 5 0 14 -13 21 -30 7 -16 16 -30 21 -30 5 0 9 -6 9 -14 0 -8 3 -16
8 -18 4 -1 25 -25 46 -53 22 -27 55 -66 74 -86 39 -43 38 -44 -61 -54 -188
-20 -371 -28 -612 -28 -208 0 -309 4 -505 18 -111 8 -274 27 -351 40 -14 3
-41 7 -60 9 -19 3 -46 7 -59 10 -14 3 -43 8 -65 11 -22 3 -47 7 -55 10 -8 2
-32 6 -54 10 -21 3 -41 7 -45 9 -3 2 -22 7 -41 10 -19 3 -50 10 -67 15 -18 5
-33 8 -33 5 0 -3 -8 0 -17 5 -10 5 -34 12 -54 15 -20 3 -48 10 -63 16 -15 5
-39 12 -54 15 -32 5 -350 109 -395 129 -18 7 -90 37 -162 66 -212 87 -501 239
-667 351 -31 22 -61 39 -67 39 -5 0 -11 4 -13 8 -1 4 -25 23 -53 42 -27 19
-52 37 -55 41 -3 3 -23 18 -45 34 -44 32 -186 146 -225 180 -77 69 -314 306
-365 366 -33 39 -69 81 -80 93 -11 12 -42 51 -70 87 -27 35 -53 69 -57 74 -43
54 -78 106 -78 114 0 5 -4 11 -8 13 -9 3 -126 179 -158 238 -10 19 -21 37 -24
40 -6 6 -54 94 -83 153 -11 21 -21 36 -23 34 -25 -25 -24 -806 1 -987 3 -19 7
-60 10 -90 3 -30 15 -116 27 -190 26 -169 26 -170 32 -200 9 -37 16 -70 26
-120 6 -25 13 -56 16 -70 3 -14 10 -43 16 -65 5 -22 11 -47 13 -55 2 -8 8 -26
13 -40 5 -14 10 -29 11 -35 4 -27 25 -97 48 -164 14 -40 26 -78 28 -85 3 -14
4 -19 77 -206 59 -155 227 -509 256 -542 8 -10 12 -18 8 -18 -4 0 6 -19 22
-42 15 -24 48 -76 73 -116 24 -40 51 -84 59 -96 8 -12 25 -38 37 -57 12 -19
26 -38 30 -44 5 -5 24 -32 43 -60 18 -27 36 -52 39 -55 4 -3 25 -30 47 -60 23
-30 51 -66 63 -80 11 -14 24 -29 28 -35 101 -131 370 -412 512 -535 61 -52 80
-69 126 -108 86 -75 426 -322 442 -322 4 0 17 -7 27 -15 18 -14 18 -15 -10
-26 -16 -6 -40 -13 -53 -15 -14 -3 -28 -7 -33 -10 -4 -3 -16 -7 -25 -9 -10 -2
-40 -9 -68 -15 -27 -7 -59 -14 -70 -16 -11 -1 -30 -5 -41 -8 -12 -2 -39 -7
-60 -10 -22 -4 -66 -11 -99 -16 -212 -33 -610 -31 -805 6 -14 2 -41 7 -60 10
-19 3 -55 10 -80 16 -25 5 -52 11 -60 13 -8 2 -44 10 -79 20 -58 15 -89 14
-66 -3 6 -4 37 -41 70 -82 33 -41 65 -80 70 -86 6 -7 28 -34 50 -60 47 -56
375 -389 375 -381 0 4 17 -10 38 -31 21 -20 72 -64 113 -96 40 -33 76 -63 79
-66 3 -4 66 -49 140 -102 135 -96 351 -231 445 -278 28 -14 52 -27 55 -30 8
-8 309 -151 349 -165 20 -7 50 -19 66 -26 17 -7 32 -13 35 -14 3 -1 16 -6 30
-12 14 -6 66 -25 115 -42 50 -18 101 -36 115 -41 57 -21 373 -108 415 -115 19
-3 76 -15 135 -29 14 -3 43 -8 65 -10 22 -3 47 -7 55 -10 15 -5 71 -13 139
-21 19 -2 48 -6 65 -9 36 -6 111 -14 211 -23 87 -8 636 -8 730 0 81 7 159 16
195 22 14 2 48 7 75 10 62 7 78 10 190 30 50 9 97 18 105 19 13 3 78 16 103
22 4 1 8 2 10 4 2 2 18 5 62 13 17 3 60 15 98 26 37 11 67 17 67 14 0 -3 6 -1
13 4 9 8 76 30 117 39 3 0 12 3 20 7 8 3 49 17 90 31 106 35 197 70 252 95 26
11 54 21 62 21 9 0 16 5 16 10 0 6 5 10 12 10 13 0 53 18 208 94 58 28 107 54
108 58 2 5 12 8 23 8 10 0 19 4 19 9 0 5 9 12 19 16 27 8 225 127 229 137 2 4
8 8 14 8 9 0 198 126 208 139 3 4 18 15 34 25 30 19 220 171 275 221 200 179
388 374 533 555 109 136 268 361 268 379 0 5 4 11 8 13 5 1 35 48 68 103 32
55 61 102 64 105 3 3 6 12 8 20 2 8 9 22 16 30 12 15 156 304 156 314 0 2 13
33 29 68 15 35 41 97 56 138 15 41 31 82 35 91 17 32 99 306 130 434 40 164
41 165 45 195 2 14 10 63 19 110 20 112 27 158 31 200 2 19 7 58 10 85 8 78
16 179 19 265 2 43 7 83 11 89 3 6 3 11 -2 11 -7 0 -8 16 -3 110 2 40 -9 299
-14 349 -3 25 -8 69 -11 96 -12 116 -16 152 -24 195 -7 41 -4 52 37 130 25 47
54 97 64 113 11 15 16 27 11 27 -4 0 -3 4 2 8 6 4 17 21 25 37 8 17 17 32 20
35 3 3 12 19 21 35 27 53 86 159 118 213 17 29 31 55 31 58 0 3 17 36 39 72
21 37 50 88 64 114 15 26 47 84 72 128 25 43 45 84 45 90 0 5 3 10 8 10 4 0
14 15 21 32 8 18 34 66 58 106 24 40 43 74 43 76 0 4 94 173 120 216 5 8 18
32 29 52 l20 36 -52 -3 c-29 -2 -104 -6 -167 -9 -63 -4 -155 -8 -205 -11 -84
-5 -150 -8 -380 -19 -49 -3 -180 -8 -290 -11 -110 -4 -211 -8 -225 -9 -35 -3
-50 6 -113 66 -82 79 -139 128 -148 128 -4 0 -9 3 -11 8 -9 20 -225 175 -340
243 -142 85 -338 182 -390 195 -16 3 -28 9 -28 13 0 4 -6 8 -12 8 -7 0 -56 15
-108 33 -52 17 -104 34 -115 36 -11 2 -31 6 -45 10 -14 3 -35 7 -47 9 -12 2
-26 6 -31 9 -5 3 -34 8 -63 12 -74 9 -73 9 -84 16 -14 8 -505 8 -505 0z"/>
</g>
</svg>
