<svg id="Layer_3" data-name="Layer 3" xmlns="http://www.w3.org/2000/svg" width="443.03" height="495.15" viewBox="0 0 443.03 495.15">
  <defs>
    <style>
      .cls-1 {
        fill: #f4222d;
      }
    </style>
  </defs>
  <g>
    <path class="cls-1" d="M426.87,672H175.46L108.77,231.25H493.56ZM195.39,649H407.71L467.5,254.25H135.61Z" transform="translate(-79.66 -176.84)"/>
    <path class="cls-1" d="M79.66,231.25h443v23h-443Z" transform="translate(-79.66 -176.84)"/>
    <path class="cls-1" d="M397.75,254.25H204.59l39.86-77.41H357.89Zm-155.6-23h118l-16.1-31.43H258.25Z" transform="translate(-79.66 -176.84)"/>
    <path class="cls-1" d="M301.93,606.84a11.79,11.79,0,0,1-11.49-11.5V337a11.5,11.5,0,0,1,23,0V595.34A11.29,11.29,0,0,1,301.93,606.84Z" transform="translate(-79.66 -176.84)"/>
    <path class="cls-1" d="M357.88,606.84h-.76a12.4,12.4,0,0,1-10.73-12.27l20.69-258.31a11.53,11.53,0,0,1,23,1.54l-20.7,258.31C368.61,602.24,364,606.84,357.88,606.84Z" transform="translate(-79.66 -176.84)"/>
    <path class="cls-1" d="M244.45,606.84c-6.13,0-10.73-4.6-11.49-10.73L212.26,337.8c-.76-6.13,3.83-11.5,10.73-12.27,6.13-.76,11.5,3.83,12.27,10.73L256,594.57c.77,6.13-3.83,11.5-10.73,12.27Z" transform="translate(-79.66 -176.84)"/>
  </g>
</svg>
