<svg id="Layer_3" data-name="Layer 3" xmlns="http://www.w3.org/2000/svg" width="533.67" height="496.76" viewBox="0 0 533.67 496.76">
  <defs>
    <style>
      .cls-1 {
        fill: #d9d9d9;
      }
    </style>
  </defs>
  <path class="cls-1" d="M297.63,671.65,254.78,628.8c-70.6-62.45-123.51-110.24-161.34-156.28C50.7,420.54,30.81,374,30.81,326.19c0-41.18,15.51-79.39,43.71-107.58s66.39-43.72,107.58-43.72c42.92,0,85.31,18.17,115.54,49.06,30.23-30.89,72.62-49,115.54-49,41.18,0,79.39,15.52,107.58,43.71S564.47,285,564.47,326.19c0,47.84-19.9,94.34-62.63,146.33-37.84,46-90.76,93.81-161.35,156.29ZM182.1,195C108.55,195,51,252.66,51,326.19c0,91,78.56,164.91,217.41,287.74l.45.42,28.83,28.86L326.92,614C465.77,491.1,544.33,417.17,544.33,326.2c0-73.54-57.61-131.18-131.15-131.18-40.25,0-81.57,19.29-107.86,50.35l-7.68,9.11L290,245.39C263.67,214.34,222.34,195,182.1,195Z" transform="translate(-30.81 -174.89)"/>
</svg>
