<svg id="Layer_7" data-name="Layer 7" xmlns="http://www.w3.org/2000/svg" width="117.6" height="92.01" viewBox="0 0 117.6 92.01">
  <defs>
    <style>
      .cls-1 {
        fill: #996798;
      }

      .cls-2 {
        fill: #d9d9d9;
      }
    </style>
  </defs>
  <path class="cls-1" d="M51.87-72.52" transform="translate(-257.02 -478.36)"/>
  <path class="cls-2" d="M363.94,506.65A54.71,54.71,0,0,1,335.1,564c-18.53,9.74-40.82,7.85-56.86-2.17a54.7,54.7,0,0,1-14.59-13.44,34.89,34.89,0,0,0,7.8,1.34,35.35,35.35,0,0,0,12.69-1.62,58.05,58.05,0,0,1-16.52-15.64c-11.78-16.75-10.87-34.82-10.32-40.7a51.57,51.57,0,0,0,10.32,13.85c18.66,17.74,44.86,15.12,50.3,14.46a24.88,24.88,0,0,1-6.19-12c-2.46-12.57,6.48-22.21,7.52-23.29a26,26,0,0,1,11.85-6c14.34-2.89,25.51,8.46,26.51,9.5,2,.05,13.31-.48,17-.79Z" transform="translate(-257.02 -478.36)"/>
</svg>
