<svg id="Layer_7" data-name="Layer 7" xmlns="http://www.w3.org/2000/svg" width="566.49" height="92.01" viewBox="0 0 566.49 92.01">
  <defs>
    <style>
      .cls-1 {
        fill: #996798;
      }

      .cls-2, .cls-3 {
        fill: #019cf6;
      }

      .cls-3 {
        font-size: 59.09px;
        font-family: Aleo-Bold, Aleo;
        font-weight: 700;
      }
    </style>
  </defs>
  <path class="cls-1" d="M51.87-72.52" transform="translate(-14.39 -684.62)"/>
  <g>
    <path class="cls-2" d="M570.2,712.91a54.71,54.71,0,0,1-28.84,57.32,58.07,58.07,0,0,1-56.86-2.17,54.7,54.7,0,0,1-14.59-13.44,35,35,0,0,0,20.49-.28,58.05,58.05,0,0,1-16.52-15.64C462.1,722,463,703.88,463.56,698a51.57,51.57,0,0,0,10.32,13.85c18.67,17.74,44.86,15.12,50.31,14.46a24.75,24.75,0,0,1-6.2-12c-2.46-12.58,6.49-22.22,7.52-23.3a26,26,0,0,1,11.85-6c14.34-2.89,25.51,8.46,26.51,9.5,2,0,13.31-.48,17-.79Z" transform="translate(-14.39 -684.62)"/>
    <text class="cls-3" transform="translate(0 64.21)">twitter-like app</text>
  </g>
</svg>
